<svg width="101" height="28" viewBox="0 0 101 28" fill="none" xmlns="http://www.w3.org/2000/svg">
<path d="M6.33786 0.701492H0.582031V27.9254H6.33786V0.701492Z" fill="#4D5258"/>
<path d="M23.6884 12.0669H11.2729V16.5599H23.6884V12.0669Z" fill="#4D5258"/>
<path d="M28.6201 27.9254H47.0175V23.1798H34.3759V16.6796H46.0205V11.934H34.3759V5.44706H46.9643V0.701492H28.6201V27.9254Z" fill="#4D5258"/>
<path d="M61.1911 27.9254C69.4858 27.9254 74.5106 22.7943 74.5106 14.2868C74.5106 5.80597 69.4858 0.701492 61.2708 0.701492H51.5404V27.9254H61.1911ZM57.2962 22.9937V5.63316H60.9651C66.0696 5.63316 68.768 8.23857 68.768 14.2868C68.768 20.3617 66.0696 22.9937 60.9518 22.9937H57.2962Z" fill="#4D5258"/>
<path d="M82.9283 0.701492H76.4015L84.7627 14.3134L76.242 27.9254H82.8352L88.4183 18.6336H88.6309L94.214 27.9254H100.834L92.3397 14.3134L100.648 0.701492H94.1475L88.6309 9.97994H88.4183L82.9283 0.701492Z" fill="#4D5258"/>
</svg>
